<svg xmlns="http://www.w3.org/2000/svg" width="1200" height="720" viewBox="0 0 1200 720"><defs><linearGradient id="paper" x2="1" y2="1"><stop stop-color="#f0f1ed"/><stop offset="1" stop-color="#e3e9e5"/></linearGradient><linearGradient id="wash" x1="0" y1="0" x2="0" y2="1"><stop stop-color="#b1813b" stop-opacity=".18"/><stop offset="1" stop-color="#b1813b" stop-opacity="0"/></linearGradient></defs><rect width="1200" height="720" fill="url(#paper)"/><text x="62" y="65" fill="#516864" font-family="Helvetica,Arial,sans-serif" font-size="16" letter-spacing="3">CS / SYSTEM STUDIES</text><text x="1138" y="65" fill="#516864" font-family="Helvetica,Arial,sans-serif" font-size="16" text-anchor="end" letter-spacing="1.5">LANGUAGE SIGNAL RESEARCH</text><line x1="62" y1="94" x2="1138" y2="94" stroke="#cad3cf" stroke-width="1" /><circle cx="90" cy="130" r="1" fill="#ccd5d0" /><circle cx="90" cy="178" r="1" fill="#ccd5d0" /><circle cx="90" cy="226" r="1" fill="#ccd5d0" /><circle cx="90" cy="274" r="1" fill="#ccd5d0" /><circle cx="90" cy="322" r="1" fill="#ccd5d0" /><circle cx="90" cy="370" r="1" fill="#ccd5d0" /><circle cx="90" cy="418" r="1" fill="#ccd5d0" /><circle cx="90" cy="466" r="1" fill="#ccd5d0" /><circle cx="90" cy="514" r="1" fill="#ccd5d0" /><circle cx="90" cy="562" r="1" fill="#ccd5d0" /><circle cx="90" cy="610" r="1" fill="#ccd5d0" /><circle cx="138" cy="130" r="1" fill="#ccd5d0" /><circle cx="138" cy="178" r="1" fill="#ccd5d0" /><circle cx="138" cy="226" r="1" fill="#ccd5d0" /><circle cx="138" cy="274" r="1" fill="#ccd5d0" /><circle cx="138" cy="322" r="1" fill="#ccd5d0" /><circle cx="138" cy="370" r="1" fill="#ccd5d0" /><circle cx="138" cy="418" r="1" fill="#ccd5d0" /><circle cx="138" cy="466" r="1" fill="#ccd5d0" /><circle cx="138" cy="514" r="1" fill="#ccd5d0" /><circle cx="138" cy="562" r="1" fill="#ccd5d0" /><circle cx="138" cy="610" r="1" fill="#ccd5d0" /><circle cx="186" cy="130" r="1" fill="#ccd5d0" /><circle cx="186" cy="178" r="1" fill="#ccd5d0" /><circle cx="186" cy="226" r="1" fill="#ccd5d0" /><circle cx="186" cy="274" r="1" fill="#ccd5d0" /><circle cx="186" cy="322" r="1" fill="#ccd5d0" /><circle cx="186" cy="370" r="1" fill="#ccd5d0" /><circle cx="186" cy="418" r="1" fill="#ccd5d0" /><circle cx="186" cy="466" r="1" fill="#ccd5d0" /><circle cx="186" cy="514" r="1" fill="#ccd5d0" /><circle cx="186" cy="562" r="1" fill="#ccd5d0" /><circle cx="186" cy="610" r="1" fill="#ccd5d0" /><circle cx="234" cy="130" r="1" fill="#ccd5d0" /><circle cx="234" cy="178" r="1" fill="#ccd5d0" /><circle cx="234" cy="226" r="1" fill="#ccd5d0" /><circle cx="234" cy="274" r="1" fill="#ccd5d0" /><circle cx="234" cy="322" r="1" fill="#ccd5d0" /><circle cx="234" cy="370" r="1" fill="#ccd5d0" /><circle cx="234" cy="418" r="1" fill="#ccd5d0" /><circle cx="234" cy="466" r="1" fill="#ccd5d0" /><circle cx="234" cy="514" r="1" fill="#ccd5d0" /><circle cx="234" cy="562" r="1" fill="#ccd5d0" /><circle cx="234" cy="610" r="1" fill="#ccd5d0" /><circle cx="282" cy="130" r="1" fill="#ccd5d0" /><circle cx="282" cy="178" r="1" fill="#ccd5d0" /><circle cx="282" cy="226" r="1" fill="#ccd5d0" /><circle cx="282" cy="274" r="1" fill="#ccd5d0" /><circle cx="282" cy="322" r="1" fill="#ccd5d0" /><circle cx="282" cy="370" r="1" fill="#ccd5d0" /><circle cx="282" cy="418" r="1" fill="#ccd5d0" /><circle cx="282" cy="466" r="1" fill="#ccd5d0" /><circle cx="282" cy="514" r="1" fill="#ccd5d0" /><circle cx="282" cy="562" r="1" fill="#ccd5d0" /><circle cx="282" cy="610" r="1" fill="#ccd5d0" /><circle cx="330" cy="130" r="1" fill="#ccd5d0" /><circle cx="330" cy="178" r="1" fill="#ccd5d0" /><circle cx="330" cy="226" r="1" fill="#ccd5d0" /><circle cx="330" cy="274" r="1" fill="#ccd5d0" /><circle cx="330" cy="322" r="1" fill="#ccd5d0" /><circle cx="330" cy="370" r="1" fill="#ccd5d0" /><circle cx="330" cy="418" r="1" fill="#ccd5d0" /><circle cx="330" cy="466" r="1" fill="#ccd5d0" /><circle cx="330" cy="514" r="1" fill="#ccd5d0" /><circle cx="330" cy="562" r="1" fill="#ccd5d0" /><circle cx="330" cy="610" r="1" fill="#ccd5d0" /><circle cx="378" cy="130" r="1" fill="#ccd5d0" /><circle cx="378" cy="178" r="1" fill="#ccd5d0" /><circle cx="378" cy="226" r="1" fill="#ccd5d0" /><circle cx="378" cy="274" r="1" fill="#ccd5d0" /><circle cx="378" cy="322" r="1" fill="#ccd5d0" /><circle cx="378" cy="370" r="1" fill="#ccd5d0" /><circle cx="378" cy="418" r="1" fill="#ccd5d0" /><circle cx="378" cy="466" r="1" fill="#ccd5d0" /><circle cx="378" cy="514" r="1" fill="#ccd5d0" /><circle cx="378" cy="562" r="1" fill="#ccd5d0" /><circle cx="378" cy="610" r="1" fill="#ccd5d0" /><circle cx="426" cy="130" r="1" fill="#ccd5d0" /><circle cx="426" cy="178" r="1" fill="#ccd5d0" /><circle cx="426" cy="226" r="1" fill="#ccd5d0" /><circle cx="426" cy="274" r="1" fill="#ccd5d0" /><circle cx="426" cy="322" r="1" fill="#ccd5d0" /><circle cx="426" cy="370" r="1" fill="#ccd5d0" /><circle cx="426" cy="418" r="1" fill="#ccd5d0" /><circle cx="426" cy="466" r="1" fill="#ccd5d0" /><circle cx="426" cy="514" r="1" fill="#ccd5d0" /><circle cx="426" cy="562" r="1" fill="#ccd5d0" /><circle cx="426" cy="610" r="1" fill="#ccd5d0" /><circle cx="474" cy="130" r="1" fill="#ccd5d0" /><circle cx="474" cy="178" r="1" fill="#ccd5d0" /><circle cx="474" cy="226" r="1" fill="#ccd5d0" /><circle cx="474" cy="274" r="1" fill="#ccd5d0" /><circle cx="474" cy="322" r="1" fill="#ccd5d0" /><circle cx="474" cy="370" r="1" fill="#ccd5d0" /><circle cx="474" cy="418" r="1" fill="#ccd5d0" /><circle cx="474" cy="466" r="1" fill="#ccd5d0" /><circle cx="474" cy="514" r="1" fill="#ccd5d0" /><circle cx="474" cy="562" r="1" fill="#ccd5d0" /><circle cx="474" cy="610" r="1" fill="#ccd5d0" /><circle cx="522" cy="130" r="1" fill="#ccd5d0" /><circle cx="522" cy="178" r="1" fill="#ccd5d0" /><circle cx="522" cy="226" r="1" fill="#ccd5d0" /><circle cx="522" cy="274" r="1" fill="#ccd5d0" /><circle cx="522" cy="322" r="1" fill="#ccd5d0" /><circle cx="522" cy="370" r="1" fill="#ccd5d0" /><circle cx="522" cy="418" r="1" fill="#ccd5d0" /><circle cx="522" cy="466" r="1" fill="#ccd5d0" /><circle cx="522" cy="514" r="1" fill="#ccd5d0" /><circle cx="522" cy="562" r="1" fill="#ccd5d0" /><circle cx="522" cy="610" r="1" fill="#ccd5d0" /><circle cx="570" cy="130" r="1" fill="#ccd5d0" /><circle cx="570" cy="178" r="1" fill="#ccd5d0" /><circle cx="570" cy="226" r="1" fill="#ccd5d0" /><circle cx="570" cy="274" r="1" fill="#ccd5d0" /><circle cx="570" cy="322" r="1" fill="#ccd5d0" /><circle cx="570" cy="370" r="1" fill="#ccd5d0" /><circle cx="570" cy="418" r="1" fill="#ccd5d0" /><circle cx="570" cy="466" r="1" fill="#ccd5d0" /><circle cx="570" cy="514" r="1" fill="#ccd5d0" /><circle cx="570" cy="562" r="1" fill="#ccd5d0" /><circle cx="570" cy="610" r="1" fill="#ccd5d0" /><circle cx="618" cy="130" r="1" fill="#ccd5d0" /><circle cx="618" cy="178" r="1" fill="#ccd5d0" /><circle cx="618" cy="226" r="1" fill="#ccd5d0" /><circle cx="618" cy="274" r="1" fill="#ccd5d0" /><circle cx="618" cy="322" r="1" fill="#ccd5d0" /><circle cx="618" cy="370" r="1" fill="#ccd5d0" /><circle cx="618" cy="418" r="1" fill="#ccd5d0" /><circle cx="618" cy="466" r="1" fill="#ccd5d0" /><circle cx="618" cy="514" r="1" fill="#ccd5d0" /><circle cx="618" cy="562" r="1" fill="#ccd5d0" /><circle cx="618" cy="610" r="1" fill="#ccd5d0" /><circle cx="666" cy="130" r="1" fill="#ccd5d0" /><circle cx="666" cy="178" r="1" fill="#ccd5d0" /><circle cx="666" cy="226" r="1" fill="#ccd5d0" /><circle cx="666" cy="274" r="1" fill="#ccd5d0" /><circle cx="666" cy="322" r="1" fill="#ccd5d0" /><circle cx="666" cy="370" r="1" fill="#ccd5d0" /><circle cx="666" cy="418" r="1" fill="#ccd5d0" /><circle cx="666" cy="466" r="1" fill="#ccd5d0" /><circle cx="666" cy="514" r="1" fill="#ccd5d0" /><circle cx="666" cy="562" r="1" fill="#ccd5d0" /><circle cx="666" cy="610" r="1" fill="#ccd5d0" /><circle cx="714" cy="130" r="1" fill="#ccd5d0" /><circle cx="714" cy="178" r="1" fill="#ccd5d0" /><circle cx="714" cy="226" r="1" fill="#ccd5d0" /><circle cx="714" cy="274" r="1" fill="#ccd5d0" /><circle cx="714" cy="322" r="1" fill="#ccd5d0" /><circle cx="714" cy="370" r="1" fill="#ccd5d0" /><circle cx="714" cy="418" r="1" fill="#ccd5d0" /><circle cx="714" cy="466" r="1" fill="#ccd5d0" /><circle cx="714" cy="514" r="1" fill="#ccd5d0" /><circle cx="714" cy="562" r="1" fill="#ccd5d0" /><circle cx="714" cy="610" r="1" fill="#ccd5d0" /><circle cx="762" cy="130" r="1" fill="#ccd5d0" /><circle cx="762" cy="178" r="1" fill="#ccd5d0" /><circle cx="762" cy="226" r="1" fill="#ccd5d0" /><circle cx="762" cy="274" r="1" fill="#ccd5d0" /><circle cx="762" cy="322" r="1" fill="#ccd5d0" /><circle cx="762" cy="370" r="1" fill="#ccd5d0" /><circle cx="762" cy="418" r="1" fill="#ccd5d0" /><circle cx="762" cy="466" r="1" fill="#ccd5d0" /><circle cx="762" cy="514" r="1" fill="#ccd5d0" /><circle cx="762" cy="562" r="1" fill="#ccd5d0" /><circle cx="762" cy="610" r="1" fill="#ccd5d0" /><circle cx="810" cy="130" r="1" fill="#ccd5d0" /><circle cx="810" cy="178" r="1" fill="#ccd5d0" /><circle cx="810" cy="226" r="1" fill="#ccd5d0" /><circle cx="810" cy="274" r="1" fill="#ccd5d0" /><circle cx="810" cy="322" r="1" fill="#ccd5d0" /><circle cx="810" cy="370" r="1" fill="#ccd5d0" /><circle cx="810" cy="418" r="1" fill="#ccd5d0" /><circle cx="810" cy="466" r="1" fill="#ccd5d0" /><circle cx="810" cy="514" r="1" fill="#ccd5d0" /><circle cx="810" cy="562" r="1" fill="#ccd5d0" /><circle cx="810" cy="610" r="1" fill="#ccd5d0" /><circle cx="858" cy="130" r="1" fill="#ccd5d0" /><circle cx="858" cy="178" r="1" fill="#ccd5d0" /><circle cx="858" cy="226" r="1" fill="#ccd5d0" /><circle cx="858" cy="274" r="1" fill="#ccd5d0" /><circle cx="858" cy="322" r="1" fill="#ccd5d0" /><circle cx="858" cy="370" r="1" fill="#ccd5d0" /><circle cx="858" cy="418" r="1" fill="#ccd5d0" /><circle cx="858" cy="466" r="1" fill="#ccd5d0" /><circle cx="858" cy="514" r="1" fill="#ccd5d0" /><circle cx="858" cy="562" r="1" fill="#ccd5d0" /><circle cx="858" cy="610" r="1" fill="#ccd5d0" /><circle cx="906" cy="130" r="1" fill="#ccd5d0" /><circle cx="906" cy="178" r="1" fill="#ccd5d0" /><circle cx="906" cy="226" r="1" fill="#ccd5d0" /><circle cx="906" cy="274" r="1" fill="#ccd5d0" /><circle cx="906" cy="322" r="1" fill="#ccd5d0" /><circle cx="906" cy="370" r="1" fill="#ccd5d0" /><circle cx="906" cy="418" r="1" fill="#ccd5d0" /><circle cx="906" cy="466" r="1" fill="#ccd5d0" /><circle cx="906" cy="514" r="1" fill="#ccd5d0" /><circle cx="906" cy="562" r="1" fill="#ccd5d0" /><circle cx="906" cy="610" r="1" fill="#ccd5d0" /><circle cx="954" cy="130" r="1" fill="#ccd5d0" /><circle cx="954" cy="178" r="1" fill="#ccd5d0" /><circle cx="954" cy="226" r="1" fill="#ccd5d0" /><circle cx="954" cy="274" r="1" fill="#ccd5d0" /><circle cx="954" cy="322" r="1" fill="#ccd5d0" /><circle cx="954" cy="370" r="1" fill="#ccd5d0" /><circle cx="954" cy="418" r="1" fill="#ccd5d0" /><circle cx="954" cy="466" r="1" fill="#ccd5d0" /><circle cx="954" cy="514" r="1" fill="#ccd5d0" /><circle cx="954" cy="562" r="1" fill="#ccd5d0" /><circle cx="954" cy="610" r="1" fill="#ccd5d0" /><circle cx="1002" cy="130" r="1" fill="#ccd5d0" /><circle cx="1002" cy="178" r="1" fill="#ccd5d0" /><circle cx="1002" cy="226" r="1" fill="#ccd5d0" /><circle cx="1002" cy="274" r="1" fill="#ccd5d0" /><circle cx="1002" cy="322" r="1" fill="#ccd5d0" /><circle cx="1002" cy="370" r="1" fill="#ccd5d0" /><circle cx="1002" cy="418" r="1" fill="#ccd5d0" /><circle cx="1002" cy="466" r="1" fill="#ccd5d0" /><circle cx="1002" cy="514" r="1" fill="#ccd5d0" /><circle cx="1002" cy="562" r="1" fill="#ccd5d0" /><circle cx="1002" cy="610" r="1" fill="#ccd5d0" /><circle cx="1050" cy="130" r="1" fill="#ccd5d0" /><circle cx="1050" cy="178" r="1" fill="#ccd5d0" /><circle cx="1050" cy="226" r="1" fill="#ccd5d0" /><circle cx="1050" cy="274" r="1" fill="#ccd5d0" /><circle cx="1050" cy="322" r="1" fill="#ccd5d0" /><circle cx="1050" cy="370" r="1" fill="#ccd5d0" /><circle cx="1050" cy="418" r="1" fill="#ccd5d0" /><circle cx="1050" cy="466" r="1" fill="#ccd5d0" /><circle cx="1050" cy="514" r="1" fill="#ccd5d0" /><circle cx="1050" cy="562" r="1" fill="#ccd5d0" /><circle cx="1050" cy="610" r="1" fill="#ccd5d0" /><circle cx="1098" cy="130" r="1" fill="#ccd5d0" /><circle cx="1098" cy="178" r="1" fill="#ccd5d0" /><circle cx="1098" cy="226" r="1" fill="#ccd5d0" /><circle cx="1098" cy="274" r="1" fill="#ccd5d0" /><circle cx="1098" cy="322" r="1" fill="#ccd5d0" /><circle cx="1098" cy="370" r="1" fill="#ccd5d0" /><circle cx="1098" cy="418" r="1" fill="#ccd5d0" /><circle cx="1098" cy="466" r="1" fill="#ccd5d0" /><circle cx="1098" cy="514" r="1" fill="#ccd5d0" /><circle cx="1098" cy="562" r="1" fill="#ccd5d0" /><circle cx="1098" cy="610" r="1" fill="#ccd5d0" /><line x1="112" y1="200" x2="1088" y2="200" stroke="#cad3cf" stroke-width="1" /><line x1="112" y1="290" x2="1088" y2="290" stroke="#cad3cf" stroke-width="1" /><line x1="112" y1="380" x2="1088" y2="380" stroke="#cad3cf" stroke-width="1" /><line x1="112" y1="470" x2="1088" y2="470" stroke="#cad3cf" stroke-width="1" /><line x1="112" y1="150" x2="112" y2="560" stroke="#9dafaa" stroke-width="1" /><line x1="112" y1="560" x2="1088" y2="560" stroke="#9dafaa" stroke-width="1" /><text x="140" y="165" fill="#687875" font-family="Helvetica,Arial,sans-serif" font-size="15" >OBSERVE / MODEL / EVALUATE</text><text x="870" y="603" fill="#687875" font-family="Helvetica,Arial,sans-serif" font-size="15" >TIME-SERIES STUDY</text><rect x="135" y="535" width="8" height="10" rx="2" fill="#c1cdc5" stroke="none"/><rect x="154" y="518" width="8" height="27" rx="2" fill="#c1cdc5" stroke="none"/><rect x="173" y="501" width="8" height="44" rx="2" fill="#c1cdc5" stroke="none"/><rect x="192" y="484" width="8" height="61" rx="2" fill="#c1cdc5" stroke="none"/><rect x="211" y="522" width="8" height="23" rx="2" fill="#c1cdc5" stroke="none"/><rect x="230" y="505" width="8" height="40" rx="2" fill="#c1cdc5" stroke="none"/><rect x="249" y="488" width="8" height="57" rx="2" fill="#c1cdc5" stroke="none"/><rect x="268" y="526" width="8" height="19" rx="2" fill="#c1cdc5" stroke="none"/><rect x="287" y="509" width="8" height="36" rx="2" fill="#c1cdc5" stroke="none"/><rect x="306" y="492" width="8" height="53" rx="2" fill="#c1cdc5" stroke="none"/><rect x="325" y="530" width="8" height="15" rx="2" fill="#c1cdc5" stroke="none"/><rect x="344" y="513" width="8" height="32" rx="2" fill="#c1cdc5" stroke="none"/><rect x="363" y="496" width="8" height="49" rx="2" fill="#c1cdc5" stroke="none"/><rect x="382" y="534" width="8" height="11" rx="2" fill="#c1cdc5" stroke="none"/><rect x="401" y="517" width="8" height="28" rx="2" fill="#c1cdc5" stroke="none"/><rect x="420" y="500" width="8" height="45" rx="2" fill="#c1cdc5" stroke="none"/><rect x="439" y="483" width="8" height="62" rx="2" fill="#c1cdc5" stroke="none"/><rect x="458" y="521" width="8" height="24" rx="2" fill="#c1cdc5" stroke="none"/><rect x="477" y="504" width="8" height="41" rx="2" fill="#c1cdc5" stroke="none"/><rect x="496" y="487" width="8" height="58" rx="2" fill="#c1cdc5" stroke="none"/><rect x="515" y="525" width="8" height="20" rx="2" fill="#c1cdc5" stroke="none"/><rect x="534" y="508" width="8" height="37" rx="2" fill="#c1cdc5" stroke="none"/><rect x="553" y="491" width="8" height="54" rx="2" fill="#c1cdc5" stroke="none"/><rect x="572" y="529" width="8" height="16" rx="2" fill="#c1cdc5" stroke="none"/><rect x="591" y="512" width="8" height="33" rx="2" fill="#c1cdc5" stroke="none"/><rect x="610" y="495" width="8" height="50" rx="2" fill="#c1cdc5" stroke="none"/><rect x="629" y="533" width="8" height="12" rx="2" fill="#c1cdc5" stroke="none"/><rect x="648" y="516" width="8" height="29" rx="2" fill="#c1cdc5" stroke="none"/><rect x="667" y="499" width="8" height="46" rx="2" fill="#c1cdc5" stroke="none"/><rect x="686" y="482" width="8" height="63" rx="2" fill="#c1cdc5" stroke="none"/><rect x="705" y="520" width="8" height="25" rx="2" fill="#c1cdc5" stroke="none"/><rect x="724" y="503" width="8" height="42" rx="2" fill="#c1cdc5" stroke="none"/><rect x="743" y="486" width="8" height="59" rx="2" fill="#c1cdc5" stroke="none"/><rect x="762" y="524" width="8" height="21" rx="2" fill="#c1cdc5" stroke="none"/><rect x="781" y="507" width="8" height="38" rx="2" fill="#c1cdc5" stroke="none"/><rect x="800" y="490" width="8" height="55" rx="2" fill="#c1cdc5" stroke="none"/><rect x="819" y="528" width="8" height="17" rx="2" fill="#c1cdc5" stroke="none"/><rect x="838" y="511" width="8" height="34" rx="2" fill="#c1cdc5" stroke="none"/><rect x="857" y="494" width="8" height="51" rx="2" fill="#c1cdc5" stroke="none"/><rect x="876" y="532" width="8" height="13" rx="2" fill="#c1cdc5" stroke="none"/><rect x="895" y="515" width="8" height="30" rx="2" fill="#c1cdc5" stroke="none"/><rect x="914" y="498" width="8" height="47" rx="2" fill="#c1cdc5" stroke="none"/><rect x="933" y="481" width="8" height="64" rx="2" fill="#c1cdc5" stroke="none"/><rect x="952" y="519" width="8" height="26" rx="2" fill="#c1cdc5" stroke="none"/><rect x="971" y="502" width="8" height="43" rx="2" fill="#c1cdc5" stroke="none"/><rect x="990" y="485" width="8" height="60" rx="2" fill="#c1cdc5" stroke="none"/><rect x="1009" y="523" width="8" height="22" rx="2" fill="#c1cdc5" stroke="none"/><rect x="1028" y="506" width="8" height="39" rx="2" fill="#c1cdc5" stroke="none"/><path d="M112.0 438.0 L124.2 446.4 L136.4 443.3 L148.6 438.0 L160.8 438.3 L173.0 443.5 L185.2 444.4 L197.4 431.5 L209.6 403.3 L221.8 369.1 L234.0 344.0 L246.2 338.5 L258.4 352.1 L270.6 373.9 L282.8 390.8 L295.0 396.9 L307.2 396.4 L319.4 398.5 L331.6 408.4 L343.8 422.0 L356.0 428.1 L368.2 416.7 L380.4 387.6 L392.6 351.7 L404.8 324.4 L417.0 315.4 L429.2 323.0 L441.4 336.7 L453.6 345.7 L465.8 347.0 L478.0 346.8 L490.2 354.2 L502.4 372.2 L514.6 393.7 L526.8 405.5 L539.0 397.4 L551.2 370.5 L563.4 336.3 L575.6 309.6 L587.8 298.7 L600.0 300.7 L612.2 305.6 L624.4 305.1 L636.6 299.5 L648.8 297.3 L661.0 307.5 L673.2 331.2 L685.4 358.7 L697.6 375.5 L709.8 371.9 L722.0 349.4 L734.2 320.0 L746.4 297.0 L758.6 286.6 L770.8 284.3 L783.0 280.8 L795.2 270.5 L807.4 256.9 L819.6 250.7 L831.8 261.0 L844.0 287.2 L856.2 318.1 L868.4 338.4 L880.6 339.1 L892.8 322.6 L905.0 300.4 L917.2 284.0 L929.4 276.5 L941.6 272.1 L953.8 261.7 L966.0 242.3 L978.2 220.7 L990.4 209.3 L1002.6 217.4 L1014.8 243.1 L1027.0 274.0 L1039.2 295.4 L1051.4 299.2 L1063.6 289.0 L1075.8 275.5 L1088.0 267.8 L1088 560 L112 560 Z" fill="url(#wash)"/><path d="M112.0 438.0 L124.2 446.4 L136.4 443.3 L148.6 438.0 L160.8 438.3 L173.0 443.5 L185.2 444.4 L197.4 431.5 L209.6 403.3 L221.8 369.1 L234.0 344.0 L246.2 338.5 L258.4 352.1 L270.6 373.9 L282.8 390.8 L295.0 396.9 L307.2 396.4 L319.4 398.5 L331.6 408.4 L343.8 422.0 L356.0 428.1 L368.2 416.7 L380.4 387.6 L392.6 351.7 L404.8 324.4 L417.0 315.4 L429.2 323.0 L441.4 336.7 L453.6 345.7 L465.8 347.0 L478.0 346.8 L490.2 354.2 L502.4 372.2 L514.6 393.7 L526.8 405.5 L539.0 397.4 L551.2 370.5 L563.4 336.3 L575.6 309.6 L587.8 298.7 L600.0 300.7 L612.2 305.6 L624.4 305.1 L636.6 299.5 L648.8 297.3 L661.0 307.5 L673.2 331.2 L685.4 358.7 L697.6 375.5 L709.8 371.9 L722.0 349.4 L734.2 320.0 L746.4 297.0 L758.6 286.6 L770.8 284.3 L783.0 280.8 L795.2 270.5 L807.4 256.9 L819.6 250.7 L831.8 261.0 L844.0 287.2 L856.2 318.1 L868.4 338.4 L880.6 339.1 L892.8 322.6 L905.0 300.4 L917.2 284.0 L929.4 276.5 L941.6 272.1 L953.8 261.7 L966.0 242.3 L978.2 220.7 L990.4 209.3 L1002.6 217.4 L1014.8 243.1 L1027.0 274.0 L1039.2 295.4 L1051.4 299.2 L1063.6 289.0 L1075.8 275.5 L1088.0 267.8" fill="none" stroke="#b1813b" stroke-width="3.5" stroke-linejoin="round" stroke-linecap="round"/><line x1="62" y1="654" x2="1138" y2="654" stroke="#cad3cf" stroke-width="1" /><text x="62" y="686" fill="#7b8b84" font-family="Helvetica,Arial,sans-serif" font-size="13" letter-spacing="2">CONCEPTUAL SYSTEM ILLUSTRATION</text><text x="1138" y="686" fill="#7b8b84" font-family="Helvetica,Arial,sans-serif" font-size="13" text-anchor="end" letter-spacing="2">CHAITANYA SINGH</text></svg>