<svg xmlns="http://www.w3.org/2000/svg" width="1200" height="720" viewBox="0 0 1200 720"><defs><linearGradient id="paper" x2="1" y2="1"><stop stop-color="#f0f1ed"/><stop offset="1" stop-color="#e3e9e5"/></linearGradient><linearGradient id="wash" x1="0" y1="0" x2="0" y2="1"><stop stop-color="#5273b4" stop-opacity=".18"/><stop offset="1" stop-color="#5273b4" stop-opacity="0"/></linearGradient></defs><rect width="1200" height="720" fill="url(#paper)"/><text x="62" y="65" fill="#516864" font-family="Helvetica,Arial,sans-serif" font-size="16" letter-spacing="3">CS / SYSTEM STUDIES</text><text x="1138" y="65" fill="#516864" font-family="Helvetica,Arial,sans-serif" font-size="16" text-anchor="end" letter-spacing="1.5">FINANCE &amp; COVERAGE</text><line x1="62" y1="94" x2="1138" y2="94" stroke="#cad3cf" stroke-width="1" /><circle cx="90" cy="130" r="1" fill="#ccd5d0" /><circle cx="90" cy="178" r="1" fill="#ccd5d0" /><circle cx="90" cy="226" r="1" fill="#ccd5d0" /><circle cx="90" cy="274" r="1" fill="#ccd5d0" /><circle cx="90" cy="322" r="1" fill="#ccd5d0" /><circle cx="90" cy="370" r="1" fill="#ccd5d0" /><circle cx="90" cy="418" r="1" fill="#ccd5d0" /><circle cx="90" cy="466" r="1" fill="#ccd5d0" /><circle cx="90" cy="514" r="1" fill="#ccd5d0" /><circle cx="90" cy="562" r="1" fill="#ccd5d0" /><circle cx="90" cy="610" r="1" fill="#ccd5d0" /><circle cx="138" cy="130" r="1" fill="#ccd5d0" /><circle cx="138" cy="178" r="1" fill="#ccd5d0" /><circle cx="138" cy="226" r="1" fill="#ccd5d0" /><circle cx="138" cy="274" r="1" fill="#ccd5d0" /><circle cx="138" cy="322" r="1" fill="#ccd5d0" /><circle cx="138" cy="370" r="1" fill="#ccd5d0" /><circle cx="138" cy="418" r="1" fill="#ccd5d0" /><circle cx="138" cy="466" r="1" fill="#ccd5d0" /><circle cx="138" cy="514" r="1" fill="#ccd5d0" /><circle cx="138" cy="562" r="1" fill="#ccd5d0" /><circle cx="138" cy="610" r="1" fill="#ccd5d0" /><circle cx="186" cy="130" r="1" fill="#ccd5d0" /><circle cx="186" cy="178" r="1" fill="#ccd5d0" /><circle cx="186" cy="226" r="1" fill="#ccd5d0" /><circle cx="186" cy="274" r="1" fill="#ccd5d0" /><circle cx="186" cy="322" r="1" fill="#ccd5d0" /><circle cx="186" cy="370" r="1" fill="#ccd5d0" /><circle cx="186" cy="418" r="1" fill="#ccd5d0" /><circle cx="186" cy="466" r="1" fill="#ccd5d0" /><circle cx="186" cy="514" r="1" fill="#ccd5d0" /><circle cx="186" cy="562" r="1" fill="#ccd5d0" /><circle cx="186" cy="610" r="1" fill="#ccd5d0" /><circle cx="234" cy="130" r="1" fill="#ccd5d0" /><circle cx="234" cy="178" r="1" fill="#ccd5d0" /><circle cx="234" cy="226" r="1" fill="#ccd5d0" /><circle cx="234" cy="274" r="1" fill="#ccd5d0" /><circle cx="234" cy="322" r="1" fill="#ccd5d0" /><circle cx="234" cy="370" r="1" fill="#ccd5d0" /><circle cx="234" cy="418" r="1" fill="#ccd5d0" /><circle cx="234" cy="466" r="1" fill="#ccd5d0" /><circle cx="234" cy="514" r="1" fill="#ccd5d0" /><circle cx="234" cy="562" r="1" fill="#ccd5d0" /><circle cx="234" cy="610" r="1" fill="#ccd5d0" /><circle cx="282" cy="130" r="1" fill="#ccd5d0" /><circle cx="282" cy="178" r="1" fill="#ccd5d0" /><circle cx="282" cy="226" r="1" fill="#ccd5d0" /><circle cx="282" cy="274" r="1" fill="#ccd5d0" /><circle cx="282" cy="322" r="1" fill="#ccd5d0" /><circle cx="282" cy="370" r="1" fill="#ccd5d0" /><circle cx="282" cy="418" r="1" fill="#ccd5d0" /><circle cx="282" cy="466" r="1" fill="#ccd5d0" /><circle cx="282" cy="514" r="1" fill="#ccd5d0" /><circle cx="282" cy="562" r="1" fill="#ccd5d0" /><circle cx="282" cy="610" r="1" fill="#ccd5d0" /><circle cx="330" cy="130" r="1" fill="#ccd5d0" /><circle cx="330" cy="178" r="1" fill="#ccd5d0" /><circle cx="330" cy="226" r="1" fill="#ccd5d0" /><circle cx="330" cy="274" r="1" fill="#ccd5d0" /><circle cx="330" cy="322" r="1" fill="#ccd5d0" /><circle cx="330" cy="370" r="1" fill="#ccd5d0" /><circle cx="330" cy="418" r="1" fill="#ccd5d0" /><circle cx="330" cy="466" r="1" fill="#ccd5d0" /><circle cx="330" cy="514" r="1" fill="#ccd5d0" /><circle cx="330" cy="562" r="1" fill="#ccd5d0" /><circle cx="330" cy="610" r="1" fill="#ccd5d0" /><circle cx="378" cy="130" r="1" fill="#ccd5d0" /><circle cx="378" cy="178" r="1" fill="#ccd5d0" /><circle cx="378" cy="226" r="1" fill="#ccd5d0" /><circle cx="378" cy="274" r="1" fill="#ccd5d0" /><circle cx="378" cy="322" r="1" fill="#ccd5d0" /><circle cx="378" cy="370" r="1" fill="#ccd5d0" /><circle cx="378" cy="418" r="1" fill="#ccd5d0" /><circle cx="378" cy="466" r="1" fill="#ccd5d0" /><circle cx="378" cy="514" r="1" fill="#ccd5d0" /><circle cx="378" cy="562" r="1" fill="#ccd5d0" /><circle cx="378" cy="610" r="1" fill="#ccd5d0" /><circle cx="426" cy="130" r="1" fill="#ccd5d0" /><circle cx="426" cy="178" r="1" fill="#ccd5d0" /><circle cx="426" cy="226" r="1" fill="#ccd5d0" /><circle cx="426" cy="274" r="1" fill="#ccd5d0" /><circle cx="426" cy="322" r="1" fill="#ccd5d0" /><circle cx="426" cy="370" r="1" fill="#ccd5d0" /><circle cx="426" cy="418" r="1" fill="#ccd5d0" /><circle cx="426" cy="466" r="1" fill="#ccd5d0" /><circle cx="426" cy="514" r="1" fill="#ccd5d0" /><circle cx="426" cy="562" r="1" fill="#ccd5d0" /><circle cx="426" cy="610" r="1" fill="#ccd5d0" /><circle cx="474" cy="130" r="1" fill="#ccd5d0" /><circle cx="474" cy="178" r="1" fill="#ccd5d0" /><circle cx="474" cy="226" r="1" fill="#ccd5d0" /><circle cx="474" cy="274" r="1" fill="#ccd5d0" /><circle cx="474" cy="322" r="1" fill="#ccd5d0" /><circle cx="474" cy="370" r="1" fill="#ccd5d0" /><circle cx="474" cy="418" r="1" fill="#ccd5d0" /><circle cx="474" cy="466" r="1" fill="#ccd5d0" /><circle cx="474" cy="514" r="1" fill="#ccd5d0" /><circle cx="474" cy="562" r="1" fill="#ccd5d0" /><circle cx="474" cy="610" r="1" fill="#ccd5d0" /><circle cx="522" cy="130" r="1" fill="#ccd5d0" /><circle cx="522" cy="178" r="1" fill="#ccd5d0" /><circle cx="522" cy="226" r="1" fill="#ccd5d0" /><circle cx="522" cy="274" r="1" fill="#ccd5d0" /><circle cx="522" cy="322" r="1" fill="#ccd5d0" /><circle cx="522" cy="370" r="1" fill="#ccd5d0" /><circle cx="522" cy="418" r="1" fill="#ccd5d0" /><circle cx="522" cy="466" r="1" fill="#ccd5d0" /><circle cx="522" cy="514" r="1" fill="#ccd5d0" /><circle cx="522" cy="562" r="1" fill="#ccd5d0" /><circle cx="522" cy="610" r="1" fill="#ccd5d0" /><circle cx="570" cy="130" r="1" fill="#ccd5d0" /><circle cx="570" cy="178" r="1" fill="#ccd5d0" /><circle cx="570" cy="226" r="1" fill="#ccd5d0" /><circle cx="570" cy="274" r="1" fill="#ccd5d0" /><circle cx="570" cy="322" r="1" fill="#ccd5d0" /><circle cx="570" cy="370" r="1" fill="#ccd5d0" /><circle cx="570" cy="418" r="1" fill="#ccd5d0" /><circle cx="570" cy="466" r="1" fill="#ccd5d0" /><circle cx="570" cy="514" r="1" fill="#ccd5d0" /><circle cx="570" cy="562" r="1" fill="#ccd5d0" /><circle cx="570" cy="610" r="1" fill="#ccd5d0" /><circle cx="618" cy="130" r="1" fill="#ccd5d0" /><circle cx="618" cy="178" r="1" fill="#ccd5d0" /><circle cx="618" cy="226" r="1" fill="#ccd5d0" /><circle cx="618" cy="274" r="1" fill="#ccd5d0" /><circle cx="618" cy="322" r="1" fill="#ccd5d0" /><circle cx="618" cy="370" r="1" fill="#ccd5d0" /><circle cx="618" cy="418" r="1" fill="#ccd5d0" /><circle cx="618" cy="466" r="1" fill="#ccd5d0" /><circle cx="618" cy="514" r="1" fill="#ccd5d0" /><circle cx="618" cy="562" r="1" fill="#ccd5d0" /><circle cx="618" cy="610" r="1" fill="#ccd5d0" /><circle cx="666" cy="130" r="1" fill="#ccd5d0" /><circle cx="666" cy="178" r="1" fill="#ccd5d0" /><circle cx="666" cy="226" r="1" fill="#ccd5d0" /><circle cx="666" cy="274" r="1" fill="#ccd5d0" /><circle cx="666" cy="322" r="1" fill="#ccd5d0" /><circle cx="666" cy="370" r="1" fill="#ccd5d0" /><circle cx="666" cy="418" r="1" fill="#ccd5d0" /><circle cx="666" cy="466" r="1" fill="#ccd5d0" /><circle cx="666" cy="514" r="1" fill="#ccd5d0" /><circle cx="666" cy="562" r="1" fill="#ccd5d0" /><circle cx="666" cy="610" r="1" fill="#ccd5d0" /><circle cx="714" cy="130" r="1" fill="#ccd5d0" /><circle cx="714" cy="178" r="1" fill="#ccd5d0" /><circle cx="714" cy="226" r="1" fill="#ccd5d0" /><circle cx="714" cy="274" r="1" fill="#ccd5d0" /><circle cx="714" cy="322" r="1" fill="#ccd5d0" /><circle cx="714" cy="370" r="1" fill="#ccd5d0" /><circle cx="714" cy="418" r="1" fill="#ccd5d0" /><circle cx="714" cy="466" r="1" fill="#ccd5d0" /><circle cx="714" cy="514" r="1" fill="#ccd5d0" /><circle cx="714" cy="562" r="1" fill="#ccd5d0" /><circle cx="714" cy="610" r="1" fill="#ccd5d0" /><circle cx="762" cy="130" r="1" fill="#ccd5d0" /><circle cx="762" cy="178" r="1" fill="#ccd5d0" /><circle cx="762" cy="226" r="1" fill="#ccd5d0" /><circle cx="762" cy="274" r="1" fill="#ccd5d0" /><circle cx="762" cy="322" r="1" fill="#ccd5d0" /><circle cx="762" cy="370" r="1" fill="#ccd5d0" /><circle cx="762" cy="418" r="1" fill="#ccd5d0" /><circle cx="762" cy="466" r="1" fill="#ccd5d0" /><circle cx="762" cy="514" r="1" fill="#ccd5d0" /><circle cx="762" cy="562" r="1" fill="#ccd5d0" /><circle cx="762" cy="610" r="1" fill="#ccd5d0" /><circle cx="810" cy="130" r="1" fill="#ccd5d0" /><circle cx="810" cy="178" r="1" fill="#ccd5d0" /><circle cx="810" cy="226" r="1" fill="#ccd5d0" /><circle cx="810" cy="274" r="1" fill="#ccd5d0" /><circle cx="810" cy="322" r="1" fill="#ccd5d0" /><circle cx="810" cy="370" r="1" fill="#ccd5d0" /><circle cx="810" cy="418" r="1" fill="#ccd5d0" /><circle cx="810" cy="466" r="1" fill="#ccd5d0" /><circle cx="810" cy="514" r="1" fill="#ccd5d0" /><circle cx="810" cy="562" r="1" fill="#ccd5d0" /><circle cx="810" cy="610" r="1" fill="#ccd5d0" /><circle cx="858" cy="130" r="1" fill="#ccd5d0" /><circle cx="858" cy="178" r="1" fill="#ccd5d0" /><circle cx="858" cy="226" r="1" fill="#ccd5d0" /><circle cx="858" cy="274" r="1" fill="#ccd5d0" /><circle cx="858" cy="322" r="1" fill="#ccd5d0" /><circle cx="858" cy="370" r="1" fill="#ccd5d0" /><circle cx="858" cy="418" r="1" fill="#ccd5d0" /><circle cx="858" cy="466" r="1" fill="#ccd5d0" /><circle cx="858" cy="514" r="1" fill="#ccd5d0" /><circle cx="858" cy="562" r="1" fill="#ccd5d0" /><circle cx="858" cy="610" r="1" fill="#ccd5d0" /><circle cx="906" cy="130" r="1" fill="#ccd5d0" /><circle cx="906" cy="178" r="1" fill="#ccd5d0" /><circle cx="906" cy="226" r="1" fill="#ccd5d0" /><circle cx="906" cy="274" r="1" fill="#ccd5d0" /><circle cx="906" cy="322" r="1" fill="#ccd5d0" /><circle cx="906" cy="370" r="1" fill="#ccd5d0" /><circle cx="906" cy="418" r="1" fill="#ccd5d0" /><circle cx="906" cy="466" r="1" fill="#ccd5d0" /><circle cx="906" cy="514" r="1" fill="#ccd5d0" /><circle cx="906" cy="562" r="1" fill="#ccd5d0" /><circle cx="906" cy="610" r="1" fill="#ccd5d0" /><circle cx="954" cy="130" r="1" fill="#ccd5d0" /><circle cx="954" cy="178" r="1" fill="#ccd5d0" /><circle cx="954" cy="226" r="1" fill="#ccd5d0" /><circle cx="954" cy="274" r="1" fill="#ccd5d0" /><circle cx="954" cy="322" r="1" fill="#ccd5d0" /><circle cx="954" cy="370" r="1" fill="#ccd5d0" /><circle cx="954" cy="418" r="1" fill="#ccd5d0" /><circle cx="954" cy="466" r="1" fill="#ccd5d0" /><circle cx="954" cy="514" r="1" fill="#ccd5d0" /><circle cx="954" cy="562" r="1" fill="#ccd5d0" /><circle cx="954" cy="610" r="1" fill="#ccd5d0" /><circle cx="1002" cy="130" r="1" fill="#ccd5d0" /><circle cx="1002" cy="178" r="1" fill="#ccd5d0" /><circle cx="1002" cy="226" r="1" fill="#ccd5d0" /><circle cx="1002" cy="274" r="1" fill="#ccd5d0" /><circle cx="1002" cy="322" r="1" fill="#ccd5d0" /><circle cx="1002" cy="370" r="1" fill="#ccd5d0" /><circle cx="1002" cy="418" r="1" fill="#ccd5d0" /><circle cx="1002" cy="466" r="1" fill="#ccd5d0" /><circle cx="1002" cy="514" r="1" fill="#ccd5d0" /><circle cx="1002" cy="562" r="1" fill="#ccd5d0" /><circle cx="1002" cy="610" r="1" fill="#ccd5d0" /><circle cx="1050" cy="130" r="1" fill="#ccd5d0" /><circle cx="1050" cy="178" r="1" fill="#ccd5d0" /><circle cx="1050" cy="226" r="1" fill="#ccd5d0" /><circle cx="1050" cy="274" r="1" fill="#ccd5d0" /><circle cx="1050" cy="322" r="1" fill="#ccd5d0" /><circle cx="1050" cy="370" r="1" fill="#ccd5d0" /><circle cx="1050" cy="418" r="1" fill="#ccd5d0" /><circle cx="1050" cy="466" r="1" fill="#ccd5d0" /><circle cx="1050" cy="514" r="1" fill="#ccd5d0" /><circle cx="1050" cy="562" r="1" fill="#ccd5d0" /><circle cx="1050" cy="610" r="1" fill="#ccd5d0" /><circle cx="1098" cy="130" r="1" fill="#ccd5d0" /><circle cx="1098" cy="178" r="1" fill="#ccd5d0" /><circle cx="1098" cy="226" r="1" fill="#ccd5d0" /><circle cx="1098" cy="274" r="1" fill="#ccd5d0" /><circle cx="1098" cy="322" r="1" fill="#ccd5d0" /><circle cx="1098" cy="370" r="1" fill="#ccd5d0" /><circle cx="1098" cy="418" r="1" fill="#ccd5d0" /><circle cx="1098" cy="466" r="1" fill="#ccd5d0" /><circle cx="1098" cy="514" r="1" fill="#ccd5d0" /><circle cx="1098" cy="562" r="1" fill="#ccd5d0" /><circle cx="1098" cy="610" r="1" fill="#ccd5d0" /><rect x="143" y="164" width="290" height="348" rx="12" fill="#f5f7f1" stroke="#c9d3ce"/><text x="172" y="216" fill="#364f48" font-family="Helvetica,Arial,sans-serif" font-size="31" >Finances</text><rect x="172" y="256" width="185" height="7" rx="3" fill="#b9c9c1" stroke="none"/><rect x="172" y="296" width="155" height="7" rx="3" fill="#b9c9c1" stroke="none"/><rect x="172" y="336" width="125" height="7" rx="3" fill="#b9c9c1" stroke="none"/><rect x="172" y="376" width="185" height="7" rx="3" fill="#b9c9c1" stroke="none"/><circle cx="370" cy="450" r="22" fill="#5273b4" /><path d="M360 450 l7 7 l14 -15" fill="none" stroke="#f7f8f2" stroke-width="2"/><rect x="449" y="186" width="290" height="348" rx="12" fill="#e5ece6" stroke="#c9d3ce"/><text x="478" y="238" fill="#364f48" font-family="Helvetica,Arial,sans-serif" font-size="31" >Policy</text><rect x="478" y="278" width="185" height="7" rx="3" fill="#b9c9c1" stroke="none"/><rect x="478" y="318" width="155" height="7" rx="3" fill="#b9c9c1" stroke="none"/><rect x="478" y="358" width="125" height="7" rx="3" fill="#b9c9c1" stroke="none"/><rect x="478" y="398" width="185" height="7" rx="3" fill="#b9c9c1" stroke="none"/><circle cx="676" cy="472" r="22" fill="#5273b4" /><path d="M666 472 l7 7 l14 -15" fill="none" stroke="#f7f8f2" stroke-width="2"/><rect x="755" y="208" width="290" height="348" rx="12" fill="#d7e4dc" stroke="#c9d3ce"/><text x="784" y="260" fill="#364f48" font-family="Helvetica,Arial,sans-serif" font-size="31" >Coverage</text><rect x="784" y="300" width="185" height="7" rx="3" fill="#b9c9c1" stroke="none"/><rect x="784" y="340" width="155" height="7" rx="3" fill="#b9c9c1" stroke="none"/><rect x="784" y="380" width="125" height="7" rx="3" fill="#b9c9c1" stroke="none"/><rect x="784" y="420" width="185" height="7" rx="3" fill="#b9c9c1" stroke="none"/><circle cx="982" cy="494" r="22" fill="#5273b4" /><path d="M972 494 l7 7 l14 -15" fill="none" stroke="#f7f8f2" stroke-width="2"/><text x="600" y="608" fill="#516864" font-family="Helvetica,Arial,sans-serif" font-size="24" text-anchor="middle">A connected view of financial life</text><line x1="62" y1="654" x2="1138" y2="654" stroke="#cad3cf" stroke-width="1" /><text x="62" y="686" fill="#7b8b84" font-family="Helvetica,Arial,sans-serif" font-size="13" letter-spacing="2">CONCEPTUAL SYSTEM ILLUSTRATION</text><text x="1138" y="686" fill="#7b8b84" font-family="Helvetica,Arial,sans-serif" font-size="13" text-anchor="end" letter-spacing="2">CHAITANYA SINGH</text></svg>